<svg width="390" height="1300" viewBox="0 0 390 1300" xmlns="http://www.w3.org/2000/svg" role="img" font-family="monospace" style="background:#F4F2ED;">
  <title>Wireframe – NOIR Mobile / Change Password</title>
  <rect width="390" height="1300" fill="#F4F2ED"/>

  <text x="8" y="14" font-size="8" fill="#888" letter-spacing="1">WIREFRAME — NOIR / MOBILE — CHANGE PASSWORD PAGE</text>
  <line x1="8" y1="19" x2="382" y2="19" stroke="#CCC" stroke-width="0.4"/>

  <!-- SCREEN BORDER 390x844 -->
  <rect x="8" y="24" width="374" height="844" fill="#E8E6E0" rx="8" stroke="#AAAAAA" stroke-width="1.2"/>

  <!-- STATUS BAR -->
  <rect x="8" y="24" width="374" height="28" fill="#D8D6CF" rx="8"/>
  <rect x="8" y="40" width="374" height="12" fill="#D8D6CF"/>
  <text x="28" y="42" font-size="7" fill="#777">9:41</text>
  <text x="362" y="42" font-size="7" fill="#777" text-anchor="end">●●●</text>

  <!-- NAVBAR -->
  <rect x="8" y="52" width="374" height="52" fill="#DEDAD3" stroke="#C0BEB8" stroke-width="0.6"/>
  <rect x="22" y="64" width="52" height="16" fill="#C8C6BF" rx="2"/>
  <text x="48" y="75" font-size="7.5" fill="#666" text-anchor="middle">LOGO</text>
  <circle cx="298" cy="78" r="9" fill="none" stroke="#AAAAAA" stroke-width="1.1"/>
  <text x="298" y="82" font-size="6" fill="#888" text-anchor="middle">acct</text>
  <circle cx="324" cy="78" r="9" fill="none" stroke="#AAAAAA" stroke-width="1.1"/>
  <circle cx="332" cy="70" r="5.5" fill="#777"/>
  <text x="332" y="73.5" font-size="5" fill="#F4F2ED" text-anchor="middle">2</text>
  <rect x="348" y="71" width="18" height="2" fill="#777" rx="1"/>
  <rect x="348" y="77" width="18" height="2" fill="#777" rx="1"/>
  <rect x="348" y="83" width="18" height="2" fill="#777" rx="1"/>

  <!-- MAIN CONTENT -->
  <rect x="8" y="104" width="374" height="740" fill="#E8E6E0" stroke="#C0BEB8" stroke-width="0.6"/>

  <!-- Top spacing -->
  <rect x="8" y="104" width="374" height="50" fill="#E2E0D9"/>
  <text x="195" y="133" font-size="7" fill="#CCC" text-anchor="middle">top spacing</text>

  <!-- Breadcrumb -->
  <text x="24" y="172" font-size="7.5" fill="#999" letter-spacing="1.5">NOIR / ACCOUNT</text>
  <!-- annotation -->
  <line x1="150" y1="168" x2="200" y2="156" stroke="#AAAAAA" stroke-width="0.7" stroke-dasharray="2,2"/>
  <rect x="202" y="148" width="160" height="12" fill="#F4F2ED" rx="2" stroke="#CCC" stroke-width="0.5"/>
  <text x="282" y="158" font-size="6.5" fill="#666" text-anchor="middle">Breadcrumb — NOIR / ACCOUNT</text>

  <!-- Page title — 2 lines on mobile -->
  <rect x="24" y="182" width="240" height="72" fill="#C0BDB6" rx="3"/>
  <text x="144" y="214" font-size="14" fill="#555" text-anchor="middle" font-weight="bold">CHANGE</text>
  <text x="144" y="242" font-size="14" fill="#555" text-anchor="middle" font-weight="bold">PASSWORD</text>
  <!-- annotation title -->
  <line x1="264" y1="218" x2="310" y2="206" stroke="#AAAAAA" stroke-width="0.7" stroke-dasharray="2,2"/>
  <rect x="196" y="170" width="178" height="20" fill="#F4F2ED" rx="2" stroke="#CCC" stroke-width="0.5"/>
  <text x="285" y="179" font-size="6.5" fill="#666" text-anchor="middle">Title wraps 2 lines on mobile</text>
  <text x="285" y="188" font-size="6.5" fill="#777" text-anchor="middle">Display bold ~28px, no line limit</text>

  <!-- ===== FIELD 1: CURRENT PASSWORD ===== -->
  <text x="24" y="288" font-size="7.5" fill="#777" letter-spacing="2">CURRENT PASSWORD</text>
  <rect x="24" y="296" width="342" height="32" fill="#D8D6CF" rx="2" stroke="#AAAAAA" stroke-width="0.5"/>
  <text x="38" y="316" font-size="8.5" fill="#AAA">Current Password</text>
  <line x1="24" y1="328" x2="366" y2="328" stroke="#999" stroke-width="0.8"/>
  <!-- annotation field label -->
  <line x1="180" y1="288" x2="210" y2="274" stroke="#AAAAAA" stroke-width="0.7" stroke-dasharray="2,2"/>
  <rect x="212" y="266" width="160" height="12" fill="#F4F2ED" rx="2" stroke="#CCC" stroke-width="0.5"/>
  <text x="292" y="276" font-size="6.5" fill="#666" text-anchor="middle">Field label — caps, letter-spaced, 7.5px</text>

  <!-- ===== FIELD 2: NEW PASSWORD ===== -->
  <text x="24" y="360" font-size="7.5" fill="#777" letter-spacing="2">NEW PASSWORD</text>
  <rect x="24" y="368" width="342" height="32" fill="#D8D6CF" rx="2" stroke="#AAAAAA" stroke-width="0.5"/>
  <text x="38" y="388" font-size="8.5" fill="#AAA">New Password</text>
  <line x1="24" y1="400" x2="366" y2="400" stroke="#999" stroke-width="0.8"/>
  <!-- annotation input style -->
  <line x1="366" y1="384" x2="382" y2="372" stroke="#AAAAAA" stroke-width="0.7" stroke-dasharray="2,2"/>
  <rect x="214" y="350" width="168" height="20" fill="#F4F2ED" rx="2" stroke="#CCC" stroke-width="0.5"/>
  <text x="298" y="359" font-size="6.5" fill="#666" text-anchor="middle">Input — underline only, placeholder</text>
  <text x="298" y="368" font-size="6.5" fill="#777" text-anchor="middle">text muted · type=password</text>

  <!-- ===== FIELD 3: CONFIRM NEW PASSWORD ===== -->
  <text x="24" y="432" font-size="7.5" fill="#777" letter-spacing="2">CONFIRM NEW PASSWORD</text>
  <rect x="24" y="440" width="342" height="32" fill="#D8D6CF" rx="2" stroke="#AAAAAA" stroke-width="0.5"/>
  <text x="38" y="460" font-size="8.5" fill="#AAA">New Password (again)</text>
  <line x1="24" y1="472" x2="366" y2="472" stroke="#999" stroke-width="0.8"/>
  <!-- annotation confirm field -->
  <line x1="24" y1="456" x2="8" y2="468" stroke="#AAAAAA" stroke-width="0.7" stroke-dasharray="2,2"/>
  <rect x="8" y="488" width="200" height="20" fill="#F4F2ED" rx="2" stroke="#CCC" stroke-width="0.5"/>
  <text x="108" y="497" font-size="6.5" fill="#444" text-anchor="middle" font-weight="bold">Confirm field validates match client-side</text>
  <text x="108" y="506" font-size="6.5" fill="#777" text-anchor="middle">Error state shown if passwords differ</text>
  <line x1="108" y1="488" x2="108" y2="472" stroke="#AAAAAA" stroke-width="0.7" stroke-dasharray="2,2"/>

  <!-- ===== CTA: UPDATE PASSWORD ===== -->
  <rect x="24" y="510" width="342" height="48" fill="#C8C5BE" rx="2" stroke="#888" stroke-width="1.2"/>
  <text x="195" y="539" font-size="9" fill="#444" text-anchor="middle" letter-spacing="3" font-weight="bold">UPDATE PASSWORD</text>
  <!-- annotation CTA -->
  <line x1="366" y1="534" x2="382" y2="522" stroke="#AAAAAA" stroke-width="0.7" stroke-dasharray="2,2"/>
  <rect x="210" y="496" width="172" height="12" fill="#F4F2ED" rx="2" stroke="#CCC" stroke-width="0.5"/>
  <text x="296" y="506" font-size="6.5" fill="#666" text-anchor="middle">Primary CTA — full-width, light fill, caps</text>

  <!-- ===== BACK LINK ===== -->
  <text x="24" y="582" font-size="8.5" fill="#888">← Back to my account</text>
  <line x1="24" y1="585" x2="162" y2="585" stroke="#888" stroke-width="0.4"/>
  <!-- annotation back link -->
  <line x1="162" y1="582" x2="210" y2="570" stroke="#AAAAAA" stroke-width="0.7" stroke-dasharray="2,2"/>
  <rect x="212" y="562" width="160" height="20" fill="#F4F2ED" rx="2" stroke="#CCC" stroke-width="0.5"/>
  <text x="292" y="571" font-size="6.5" fill="#666" text-anchor="middle">Secondary link — muted, arrow prefix</text>
  <text x="292" y="580" font-size="6.5" fill="#777" text-anchor="middle">navigates back to account dashboard</text>

  <!-- Large empty space below (matches screenshot) -->
  <rect x="24" y="604" width="342" height="188" fill="#E2E0D9" rx="2" stroke="#C8C5BE" stroke-width="0.4" stroke-dasharray="4,3"/>
  <text x="195" y="698" font-size="7.5" fill="#CCC" text-anchor="middle">empty space — content ends early</text>
  <text x="195" y="712" font-size="7" fill="#CCC" text-anchor="middle">form is short — no scroll needed on most devices</text>

  <!-- FOOTER (partial — cut by viewport) -->
  <rect x="8" y="796" width="374" height="72" fill="#D8D6CF" rx="0" stroke="#BBBAB3" stroke-width="0.6"/>
  <rect x="22" y="810" width="52" height="16" fill="#C0BDB6" rx="2"/>
  <text x="48" y="821" font-size="7.5" fill="#666" text-anchor="middle">LOGO</text>
  <text x="90" y="821" font-size="7.5" fill="#888">Premium menswear. No excess. No noise.</text>
  <!-- annotation footer visible -->
  <line x1="195" y1="796" x2="195" y2="780" stroke="#AAAAAA" stroke-width="0.7" stroke-dasharray="2,2"/>
  <rect x="80" y="768" width="230" height="12" fill="#F4F2ED" rx="2" stroke="#CCC" stroke-width="0.5"/>
  <text x="195" y="778" font-size="6.5" fill="#666" text-anchor="middle">Footer visible without scrolling — form is short</text>

  <!-- Chat widget -->
  <circle cx="358" cy="820" r="16" fill="#D0CEC8" stroke="#AAAAAA" stroke-width="0.8"/>
  <text x="358" y="824" font-size="6.5" fill="#888" text-anchor="middle">chat</text>

  <!-- viewport bottom -->
  <line x1="8" y1="836" x2="382" y2="836" stroke="#AAAAAA" stroke-width="0.6" stroke-dasharray="3,3"/>
  <text x="195" y="850" font-size="6.5" fill="#BBB" text-anchor="middle">— bottom of viewport (844px) —</text>

  <!-- bottom label -->
  <line x1="8" y1="876" x2="382" y2="876" stroke="#CCC" stroke-width="0.4"/>
  <text x="8" y="888" font-size="8" fill="#AAAAAA">Page M-06 / Mobile — Change Password</text>
  <text x="382" y="888" font-size="8" fill="#AAAAAA" text-anchor="end">390×844px viewport</text>
</svg>