<svg width="1200" height="900" viewBox="0 0 1200 900" xmlns="http://www.w3.org/2000/svg" role="img" font-family="monospace" style="background:#F4F2ED;">
  <title>Wireframe – NOIR / ACCESSORIES Category Page</title>
  <rect width="1200" height="900" fill="#F4F2ED"/>
  <text x="20" y="22" font-size="11" fill="#888" letter-spacing="1.5">WIREFRAME — NOIR / CATEGORY PAGE — ACCESSORIES</text>
  <line x1="20" y1="30" x2="1180" y2="30" stroke="#CCC" stroke-width="0.5"/>
  <rect x="20" y="42" width="1160" height="52" fill="#E0DDD6" rx="3" stroke="#BBBAB3" stroke-width="0.8"/>
  <rect x="40" y="58" width="70" height="18" fill="#C8C6BF" rx="2"/>
  <text x="75" y="71" font-size="9" fill="#666" text-anchor="middle">LOGO</text>
  <rect x="420" y="60" width="50" height="14" fill="#D8D6CF" rx="2"/>
  <text x="445" y="71" font-size="8" fill="#777" text-anchor="middle">SHOP</text>
  <rect x="485" y="60" width="50" height="14" fill="#D8D6CF" rx="2"/>
  <text x="510" y="71" font-size="8" fill="#777" text-anchor="middle">ABOUT</text>
  <rect x="550" y="60" width="60" height="14" fill="#D8D6CF" rx="2"/>
  <text x="580" y="71" font-size="8" fill="#777" text-anchor="middle">JACKETS</text>
  <rect x="625" y="60" width="70" height="14" fill="#D8D6CF" rx="2"/>
  <text x="660" y="71" font-size="8" fill="#777" text-anchor="middle">TROUSERS</text>
  <rect x="710" y="60" width="85" height="14" fill="#D8D6CF" rx="2"/>
  <text x="752" y="71" font-size="8" fill="#777" text-anchor="middle">ACCESSORIES</text>
  <rect x="1020" y="60" width="70" height="14" fill="#D8D6CF" rx="2"/>
  <text x="1055" y="71" font-size="8" fill="#777" text-anchor="middle">SEARCH</text>
  <circle cx="1115" cy="67" r="8" fill="none" stroke="#AAAAAA" stroke-width="1.2"/>
  <circle cx="1145" cy="67" r="8" fill="none" stroke="#AAAAAA" stroke-width="1.2"/>
  <line x1="20" y1="96" x2="1180" y2="96" stroke="#C8C6BF" stroke-width="0.5" stroke-dasharray="4,4"/>
  <rect x="20" y="100" width="1160" height="160" fill="#E2E0D9" rx="3" stroke="#C0BEB8" stroke-width="0.8"/>
  <text x="48" y="130" font-size="9" fill="#999" letter-spacing="3">SEASON 2026</text>
  <rect x="48" y="140" width="580" height="90" fill="#C0BDB6" rx="3"/>
  <text x="338" y="196" font-size="14" fill="#777" text-anchor="middle" letter-spacing="4">ACCESSORIES</text>
  <text x="1152" y="215" font-size="9" fill="#999" letter-spacing="2" text-anchor="end">11 ITEMS</text>
  <line x1="628" y1="185" x2="700" y2="168" stroke="#AAAAAA" stroke-width="1" stroke-dasharray="3,3"/>
  <rect x="702" y="155" width="230" height="26" fill="#F4F2ED" rx="4" stroke="#CCC" stroke-width="0.8"/>
  <text x="817" y="172" font-size="8.5" fill="#666" text-anchor="middle">Category title — display extra bold ~10vw</text>
  <rect x="20" y="264" width="1160" height="590" fill="#E8E6E0" rx="3" stroke="#C0BEB8" stroke-width="0.8"/>
  <rect x="20" y="264" width="148" height="590" fill="#DEDAD3" stroke="#C0BEB8" stroke-width="0.5"/>
  <text x="40" y="300" font-size="8" fill="#999" letter-spacing="2">SHOP BY</text>
  <line x1="40" y1="310" x2="148" y2="310" stroke="#BBBAB3" stroke-width="0.5"/>
  <text x="40" y="342" font-size="9" fill="#999">ALL</text>
  <text x="40" y="378" font-size="9" fill="#999">JACKETS</text>
  <text x="40" y="414" font-size="9" fill="#999">TROUSERS</text>
  <text x="40" y="450" font-size="9" fill="#999">SHIRTS</text>
  <text x="40" y="486" font-size="9" fill="#999">T-SHIRTS</text>
  <text x="40" y="522" font-size="10" fill="#555" font-weight="bold">ACCESSORIES</text>
  <line x1="148" y1="522" x2="168" y2="510" stroke="#AAAAAA" stroke-width="1" stroke-dasharray="3,3"/>
  <rect x="170" y="497" width="190" height="22" fill="#F4F2ED" rx="4" stroke="#CCC" stroke-width="0.8"/>
  <text x="265" y="512" font-size="8.5" fill="#666" text-anchor="middle">Active item — bold, visual highlight</text>
  <rect x="170" y="278" width="248" height="370" fill="#C8C5BE" rx="2" stroke="#AAAAAA" stroke-width="0.6"/>
  <line x1="170" y1="278" x2="418" y2="648" stroke="#BBB" stroke-width="0.5"/>
  <line x1="418" y1="278" x2="170" y2="648" stroke="#BBB" stroke-width="0.5"/>
  <rect x="170" y="278" width="48" height="20" fill="#F4F2ED" rx="1" stroke="#AAAAAA" stroke-width="0.8"/>
  <text x="194" y="292" font-size="7.5" fill="#666" text-anchor="middle">NEW</text>
  <text x="294" y="470" font-size="8" fill="#888" text-anchor="middle">PRODUCT IMAGE</text>
  <text x="170" y="668" font-size="7" fill="#888" letter-spacing="2">ACCESSORIES</text>
  <text x="170" y="684" font-size="9.5" fill="#555" font-weight="bold">LEATHER CARD HOLDER</text>
  <text x="170" y="700" font-size="9" fill="#777">€49.99</text>
  <rect x="432" y="278" width="248" height="370" fill="#C8C5BE" rx="2" stroke="#AAAAAA" stroke-width="0.6"/>
  <line x1="432" y1="278" x2="680" y2="648" stroke="#BBB" stroke-width="0.5"/>
  <line x1="680" y1="278" x2="432" y2="648" stroke="#BBB" stroke-width="0.5"/>
  <rect x="432" y="278" width="48" height="20" fill="#F4F2ED" rx="1" stroke="#AAAAAA" stroke-width="0.8"/>
  <text x="456" y="292" font-size="7.5" fill="#666" text-anchor="middle">NEW</text>
  <text x="556" y="470" font-size="8" fill="#888" text-anchor="middle">PRODUCT IMAGE</text>
  <text x="432" y="668" font-size="7" fill="#888" letter-spacing="2">ACCESSORIES</text>
  <text x="432" y="684" font-size="9.5" fill="#555" font-weight="bold">MERINO WOOL SCARF</text>
  <text x="432" y="700" font-size="9" fill="#777">€59.99</text>
  <rect x="694" y="278" width="248" height="370" fill="#C8C5BE" rx="2" stroke="#AAAAAA" stroke-width="0.6"/>
  <line x1="694" y1="278" x2="942" y2="648" stroke="#BBB" stroke-width="0.5"/>
  <line x1="942" y1="278" x2="694" y2="648" stroke="#BBB" stroke-width="0.5"/>
  <rect x="694" y="278" width="48" height="20" fill="#F4F2ED" rx="1" stroke="#AAAAAA" stroke-width="0.8"/>
  <text x="718" y="292" font-size="7.5" fill="#666" text-anchor="middle">NEW</text>
  <text x="818" y="470" font-size="8" fill="#888" text-anchor="middle">PRODUCT IMAGE</text>
  <text x="694" y="668" font-size="7" fill="#888" letter-spacing="2">ACCESSORIES</text>
  <text x="694" y="684" font-size="9.5" fill="#555" font-weight="bold">CLEAR FRAME SUNGLASSES</text>
  <text x="694" y="700" font-size="9" fill="#777">€79.99</text>
  <rect x="956" y="278" width="224" height="370" fill="#C8C5BE" rx="2" stroke="#AAAAAA" stroke-width="0.6"/>
  <line x1="956" y1="278" x2="1180" y2="648" stroke="#BBB" stroke-width="0.5"/>
  <line x1="1180" y1="278" x2="956" y2="648" stroke="#BBB" stroke-width="0.5"/>
  <rect x="956" y="278" width="48" height="20" fill="#F4F2ED" rx="1" stroke="#AAAAAA" stroke-width="0.8"/>
  <text x="980" y="292" font-size="7.5" fill="#666" text-anchor="middle">NEW</text>
  <text x="1068" y="470" font-size="8" fill="#888" text-anchor="middle">PRODUCT IMAGE</text>
  <text x="956" y="668" font-size="7" fill="#888" letter-spacing="2">ACCESSORIES</text>
  <text x="956" y="684" font-size="9.5" fill="#555" font-weight="bold">OVAL TINTED SUNGLASSES</text>
  <text x="956" y="700" font-size="9" fill="#777">€89.99</text>
  <line x1="194" y1="278" x2="215" y2="255" stroke="#AAAAAA" stroke-width="1" stroke-dasharray="3,3"/>
  <rect x="217" y="241" width="198" height="20" fill="#F4F2ED" rx="4" stroke="#CCC" stroke-width="0.8"/>
  <text x="316" y="255" font-size="8.5" fill="#666" text-anchor="middle">NEW badge — top left corner of card</text>
  <line x1="600" y1="700" x2="600" y2="730" stroke="#AAAAAA" stroke-width="1" stroke-dasharray="3,3"/>
  <rect x="460" y="732" width="280" height="22" fill="#F4F2ED" rx="4" stroke="#CCC" stroke-width="0.8"/>
  <text x="600" y="747" font-size="8.5" fill="#666" text-anchor="middle">4-col grid — category + bold name + price</text>
  <rect x="170" y="724" width="248" height="50" fill="#C0BDB6" rx="2" stroke="#AAAAAA" stroke-width="0.5" stroke-dasharray="4,3"/>
  <rect x="432" y="724" width="248" height="50" fill="#C0BDB6" rx="2" stroke="#AAAAAA" stroke-width="0.5" stroke-dasharray="4,3"/>
  <rect x="694" y="724" width="248" height="50" fill="#C0BDB6" rx="2" stroke="#AAAAAA" stroke-width="0.5" stroke-dasharray="4,3"/>
  <rect x="956" y="724" width="224" height="50" fill="#C0BDB6" rx="2" stroke="#AAAAAA" stroke-width="0.5" stroke-dasharray="4,3"/>
  <text x="600" y="753" font-size="8" fill="#AAA" text-anchor="middle">second row (scroll) →</text>
  <circle cx="1160" cy="840" r="18" fill="#D0CEC8" stroke="#AAAAAA" stroke-width="1"/>
  <text x="1160" y="844" font-size="8" fill="#888" text-anchor="middle">chat</text>
  <line x1="20" y1="872" x2="1180" y2="872" stroke="#CCC" stroke-width="0.5"/>
  <text x="20" y="888" font-size="10" fill="#AAAAAA">Category Page — ACCESSORIES | Reusable template</text>
  <text x="1180" y="888" font-size="10" fill="#AAAAAA" text-anchor="end">Breakpoint: Desktop 1440px+</text>
</svg>